<?xml version="1.0" encoding="utf-8"?>
<!-- Generator: Adobe Illustrator 16.0.0, SVG Export Plug-In . SVG Version: 6.00 Build 0)  -->
<!DOCTYPE svg PUBLIC "-//W3C//DTD SVG 1.1//EN" "http://www.w3.org/Graphics/SVG/1.1/DTD/svg11.dtd">
<svg version="1.1" id="Calque_1" xmlns="http://www.w3.org/2000/svg" xmlns:xlink="http://www.w3.org/1999/xlink" x="0px" y="0px"
	 width="70px" height="31px" viewBox="0 0 70 31" enable-background="new 0 0 70 31" xml:space="preserve">
<g>
	<rect y="0" fill="#FFFFFF" width="69.68" height="31"/>
	<g>
		<path fill="#7E7A79" d="M16.39,15.99v4.35h2.68c0.64,0,1.16-0.21,1.58-0.64c0.43-0.43,0.64-0.94,0.64-1.53
			c0-0.58-0.21-1.08-0.64-1.51c-0.42-0.44-0.94-0.66-1.58-0.66H16.39L16.39,15.99z M16.39,21.87v5.04h-1.6V14.46h4.24
			c1.08,0,1.99,0.36,2.75,1.08c0.77,0.72,1.15,1.59,1.15,2.63c0,1.05-0.38,1.93-1.15,2.64c-0.74,0.71-1.66,1.06-2.75,1.06H16.39
			L16.39,21.87z"/>
		<path fill="#7E7A79" d="M25.13,24.3c0,0.42,0.18,0.77,0.53,1.04c0.35,0.28,0.77,0.42,1.24,0.42c0.67,0,1.27-0.25,1.8-0.75
			s0.79-1.08,0.79-1.76c-0.5-0.39-1.19-0.59-2.09-0.59c-0.65,0-1.19,0.16-1.63,0.47C25.35,23.45,25.13,23.84,25.13,24.3L25.13,24.3z
			 M27.2,18.11c1.18,0,2.11,0.32,2.8,0.95c0.68,0.63,1.03,1.5,1.03,2.6v5.25h-1.53v-1.18h-0.07c-0.66,0.97-1.54,1.46-2.64,1.46
			c-0.94,0-1.72-0.28-2.36-0.83c-0.63-0.56-0.95-1.25-0.95-2.09c0-0.88,0.33-1.58,1-2.1s1.56-0.78,2.67-0.78
			c0.95,0,1.73,0.17,2.35,0.52v-0.37c0-0.56-0.22-1.03-0.66-1.42c-0.44-0.39-0.96-0.58-1.55-0.58c-0.89,0-1.6,0.38-2.12,1.13
			l-1.41-0.88C24.53,18.67,25.68,18.11,27.2,18.11L27.2,18.11z"/>
		<path fill="#7E7A79" d="M42.81,27.04c-0.7,0-1.27-0.21-1.73-0.64c-0.46-0.43-0.69-1.03-0.71-1.79v-4.76h-1.5v-1.46h1.5v-2.61h1.6
			v2.61h2.09v1.46h-2.09v4.24c0,0.57,0.11,0.95,0.33,1.16c0.22,0.2,0.47,0.3,0.75,0.3c0.13,0,0.25-0.01,0.38-0.04
			c0.12-0.03,0.23-0.07,0.34-0.11l0.5,1.42C43.85,26.97,43.37,27.04,42.81,27.04L42.81,27.04z M32.83,18.39h1.53v1.39h0.07
			c0.48-1.09,1.46-1.63,2.94-1.63l0.33,0.03v1.67l-0.71-0.07c-0.74,0-1.35,0.23-1.83,0.69c-0.48,0.46-0.72,1.04-0.72,1.75v4.69h-1.6
			V18.39L32.83,18.39z"/>
		<path fill="#7E7A79" d="M45.68,18.39h1.53v1.18h0.07c0.24-0.42,0.62-0.77,1.12-1.04s1.03-0.42,1.57-0.42
			c1.04,0,1.84,0.3,2.41,0.89s0.84,1.45,0.84,2.55v5.35h-1.6v-5.25c-0.03-1.39-0.74-2.09-2.1-2.09c-0.64,0-1.17,0.26-1.6,0.77
			s-0.64,1.13-0.64,1.85v4.71h-1.6V18.39L45.68,18.39z"/>
		<path fill="#7E7A79" d="M56.37,21.62h4.88c-0.05-0.59-0.29-1.08-0.72-1.47s-1.02-0.58-1.75-0.58c-0.6,0-1.12,0.18-1.56,0.56
			C56.79,20.5,56.51,21,56.37,21.62L56.37,21.62z M58.92,27.18c-1.25,0-2.28-0.43-3.09-1.29c-0.81-0.86-1.22-1.94-1.22-3.25
			c0-1.3,0.39-2.38,1.18-3.24c0.79-0.86,1.79-1.29,3.02-1.29c1.26,0,2.27,0.41,3.02,1.22c0.75,0.82,1.12,1.96,1.12,3.43l-0.02,0.17
			h-6.69c0.02,0.83,0.3,1.51,0.83,2.02c0.53,0.51,1.17,0.76,1.91,0.76c1.02,0,1.82-0.51,2.4-1.53l1.42,0.7
			c-0.38,0.72-0.91,1.28-1.59,1.68C60.55,26.98,59.78,27.18,58.92,27.18L58.92,27.18z"/>
		<path fill="#7E7A79" d="M66.01,26.91h-1.6v-8.52h1.53v1.39h0.07c0.16-0.45,0.5-0.84,1-1.16c0.5-0.32,1-0.48,1.49-0.48
			c0.46,0,0.86,0.07,1.18,0.21L69.2,19.9c-0.2-0.08-0.51-0.12-0.94-0.12c-0.6,0-1.13,0.24-1.57,0.73c-0.45,0.49-0.67,1.05-0.67,1.7
			V26.91L66.01,26.91z"/>
		<path fill="#4B7ABD" d="M18.41,7.19v1.09h2.6c-0.08,0.69-0.37,1.22-0.85,1.6c-0.47,0.38-1.05,0.56-1.75,0.56
			c-0.8,0-1.48-0.28-2.03-0.84c-0.55-0.56-0.82-1.24-0.82-2.04s0.27-1.49,0.82-2.05c0.55-0.56,1.23-0.84,2.03-0.84
			c0.75,0,1.4,0.26,1.96,0.78l0.77-0.77c-0.77-0.73-1.68-1.1-2.72-1.1c-0.71,0-1.38,0.18-2.02,0.54c-0.63,0.36-1.12,0.84-1.48,1.46
			c-0.36,0.61-0.53,1.26-0.53,1.97c0,0.71,0.18,1.37,0.53,1.98c0.35,0.61,0.85,1.1,1.48,1.45c0.63,0.36,1.31,0.54,2.02,0.54
			c1.07,0,1.96-0.34,2.67-1.01c0.7-0.67,1.05-1.55,1.05-2.65c0-0.26-0.02-0.49-0.06-0.68H18.41L18.41,7.19z"/>
		<path fill="#E5291F" d="M26.1,10.07c-0.28,0.3-0.62,0.45-1.02,0.45c-0.41,0-0.75-0.15-1.03-0.45c-0.28-0.3-0.42-0.67-0.42-1.11
			c0-0.45,0.14-0.82,0.42-1.1c0.28-0.3,0.62-0.45,1.03-0.45s0.75,0.15,1.03,0.45c0.28,0.28,0.42,0.65,0.42,1.1
			C26.53,9.39,26.38,9.76,26.1,10.07L26.1,10.07z M25.08,6.4c-0.73,0-1.34,0.25-1.83,0.74c-0.49,0.49-0.74,1.09-0.74,1.82
			c0,0.72,0.25,1.33,0.75,1.82c0.49,0.49,1.1,0.74,1.82,0.74c0.72,0,1.33-0.25,1.82-0.74c0.5-0.5,0.75-1.1,0.75-1.82
			c0-0.73-0.25-1.34-0.75-1.82C26.41,6.65,25.8,6.4,25.08,6.4L25.08,6.4z"/>
		<polygon fill="#009E3C" points="39.4,11.37 40.52,11.37 40.52,3.84 39.4,3.84 39.4,11.37 		"/>
		<path fill="#FBB700" d="M31.7,10.07c-0.28,0.3-0.62,0.45-1.02,0.45c-0.41,0-0.75-0.15-1.03-0.45c-0.28-0.3-0.42-0.67-0.42-1.11
			c0-0.45,0.14-0.82,0.42-1.1c0.28-0.3,0.62-0.45,1.03-0.45s0.75,0.15,1.03,0.45c0.28,0.28,0.42,0.65,0.42,1.1
			C32.13,9.39,31.99,9.76,31.7,10.07L31.7,10.07z M30.68,6.4c-0.73,0-1.34,0.25-1.83,0.74c-0.49,0.49-0.74,1.09-0.74,1.82
			c0,0.72,0.25,1.33,0.75,1.82c0.49,0.49,1.1,0.74,1.82,0.74s1.33-0.25,1.82-0.74c0.5-0.5,0.75-1.1,0.75-1.82
			c0-0.73-0.25-1.34-0.75-1.82C32.02,6.65,31.41,6.4,30.68,6.4L30.68,6.4z"/>
		<path fill="#E5291F" d="M42.57,7.82c0.28-0.28,0.6-0.43,0.95-0.43c0.22,0,0.42,0.05,0.59,0.15s0.29,0.23,0.36,0.39l-2.29,0.95
			C42.17,8.45,42.3,8.1,42.57,7.82L42.57,7.82z M43.61,10.51c-0.56,0-0.98-0.26-1.24-0.78l3.42-1.42l-0.12-0.29
			c-0.09-0.24-0.21-0.46-0.35-0.66c-0.15-0.2-0.31-0.37-0.5-0.52c-0.19-0.15-0.4-0.26-0.62-0.33c-0.23-0.08-0.46-0.12-0.72-0.12
			c-0.68,0-1.26,0.24-1.73,0.73c-0.46,0.49-0.69,1.1-0.69,1.83c0,0.72,0.24,1.33,0.73,1.82c0.48,0.49,1.09,0.74,1.81,0.74
			c0.9,0,1.62-0.38,2.13-1.13L44.87,9.8C44.55,10.28,44.13,10.51,43.61,10.51L43.61,10.51z"/>
		<g>
			<path fill="#4B7ABD" d="M37.24,10.08c-0.27,0.29-0.59,0.44-0.97,0.44c-0.4,0-0.74-0.15-1.02-0.45c-0.27-0.3-0.41-0.66-0.41-1.1
				c0-0.44,0.14-0.81,0.42-1.1c0.28-0.3,0.62-0.46,1.01-0.46c0.39,0,0.71,0.15,0.97,0.45c0.26,0.3,0.4,0.68,0.4,1.11
				C37.64,9.4,37.5,9.77,37.24,10.08L37.24,10.08z M37.56,6.97h-0.04C37.2,6.59,36.75,6.4,36.17,6.4c-0.66,0-1.24,0.25-1.73,0.76
				c-0.48,0.5-0.73,1.11-0.73,1.81c0,0.7,0.24,1.3,0.73,1.8c0.5,0.5,1.07,0.75,1.73,0.75c0.58,0,1.02-0.19,1.35-0.58h0.04v0.26
				c0,1.07-0.46,1.61-1.37,1.61c-0.29,0-0.55-0.08-0.78-0.25c-0.23-0.17-0.4-0.39-0.51-0.66l-0.98,0.41
				c0.1,0.23,0.22,0.43,0.37,0.62c0.15,0.18,0.32,0.34,0.52,0.48c0.2,0.13,0.41,0.24,0.64,0.31c0.23,0.07,0.48,0.11,0.74,0.11
				c0.76,0,1.36-0.23,1.79-0.69s0.64-1.12,0.64-1.97v-4.6h-1.07V6.97L37.56,6.97z"/>
			<polygon fill="#4B7ABD" points="0,31 8.16,31 8.16,0 0,0 0,31 			"/>
		</g>
	</g>
</g>
</svg>
