<?xml version="1.0" encoding="utf-8"?>
<!-- Generator: Adobe Illustrator 16.0.0, SVG Export Plug-In . SVG Version: 6.00 Build 0)  -->
<!DOCTYPE svg PUBLIC "-//W3C//DTD SVG 1.1//EN" "http://www.w3.org/Graphics/SVG/1.1/DTD/svg11.dtd">
<svg version="1.1" id="Calque_1" xmlns="http://www.w3.org/2000/svg" xmlns:xlink="http://www.w3.org/1999/xlink" x="0px" y="0px"
	 width="220.08px" height="26.67px" viewBox="0 0 220.08 26.67" enable-background="new 0 0 220.08 26.67" xml:space="preserve">
<g>
	<path fill="#FFFFFF" stroke="#FFFFFF" stroke-width="0.6797" stroke-miterlimit="10" d="M11.26,26.55
		c-7.36,0-11.04-4.38-11.04-13.13V13.3C0.3,4.58,3.99,0.22,11.3,0.22h8.87v4.61h-9.95c-1.94,0-3.38,0.7-4.32,2.1
		c-0.94,1.4-1.41,3.58-1.41,6.54c0,5.65,1.9,8.47,5.69,8.47h5.11c0.72,0,1.34-0.32,1.86-0.96c0.52-0.64,0.77-1.38,0.77-2.22
		c0-0.84-0.25-1.57-0.76-2.2s-1.13-0.94-1.88-0.94h-3.87V11h4.07c0.93,0,1.81,0.2,2.63,0.59c0.83,0.39,1.54,0.94,2.13,1.66
		c0.59,0.71,1.07,1.55,1.41,2.52c0.35,0.96,0.52,2.04,0.52,3.21c0,0.95-0.18,1.88-0.54,2.79c-0.36,0.91-0.85,1.72-1.47,2.43
		c-0.62,0.71-1.34,1.29-2.15,1.72s-1.67,0.65-2.58,0.65H11.26z"/>
	<path fill="#FFFFFF" stroke="#FFFFFF" stroke-width="0.3589" stroke-miterlimit="10" d="M37.49,20.46c0,0.94-0.13,1.79-0.4,2.55
		s-0.66,1.41-1.18,1.96c-0.52,0.55-1.18,0.97-1.98,1.27c-0.8,0.3-1.73,0.45-2.79,0.45c-1.03,0-1.94-0.15-2.74-0.46
		c-0.8-0.3-1.46-0.73-2-1.27c-0.54-0.54-0.95-1.19-1.23-1.95s-0.42-1.6-0.42-2.52V10.14h2.66v10.3c0,0.99,0.33,1.8,1,2.43
		s1.59,0.94,2.76,0.94h0.07c1.21,0,2.11-0.31,2.7-0.94c0.6-0.63,0.89-1.44,0.89-2.43v-10.3h2.66V20.46z"/>
	<path fill="#FFFFFF" stroke="#FFFFFF" stroke-width="0.3589" stroke-miterlimit="10" d="M40.61,10.14h2.66v16.42h-2.66V10.14z"/>
	<path fill="#FFFFFF" stroke="#FFFFFF" stroke-width="0.3589" stroke-miterlimit="10" d="M53.06,26.55c-1.11,0-2.08-0.17-2.92-0.5
		c-0.84-0.33-1.53-0.8-2.09-1.42c-0.56-0.62-0.97-1.36-1.26-2.23s-0.42-1.86-0.42-2.95v-9.31h2.66v9.33c0,1.32,0.35,2.36,1.04,3.1
		s1.67,1.11,2.92,1.11h4.61v2.88H53.06z"/>
	<path fill="#FFFFFF" stroke="#FFFFFF" stroke-width="0.3589" stroke-miterlimit="10" d="M66.73,10.14c4.59,0,6.88,2.73,6.88,8.18
		c0,2.75-0.58,4.81-1.75,6.18c-1.17,1.37-2.89,2.05-5.15,2.05h-6.23V10.14H66.73z M63.13,23.68h4.25c1.21,0,2.1-0.44,2.69-1.31
		c0.59-0.87,0.88-2.23,0.88-4.08c0-3.52-1.18-5.28-3.55-5.28h-4.27V23.68z"/>
	<path fill="#FFFFFF" stroke="#FFFFFF" stroke-width="0.6797" stroke-miterlimit="10" d="M93.36,0.14c7.63,0,11.49,4.37,11.57,13.12
		v0.13c0,8.78-3.84,13.16-11.53,13.16h-2.02c-7.69,0-11.53-4.39-11.53-13.16v-0.13c0.08-8.75,3.94-13.12,11.57-13.12H93.36z
		 M90.29,4.77c-2.02,0-3.53,0.7-4.51,2.1c-0.99,1.4-1.48,3.59-1.48,6.56c0,5.66,1.98,8.5,5.95,8.5h4.29c3.97,0,5.95-2.83,5.95-8.5
		c0-2.97-0.49-5.16-1.48-6.56c-0.99-1.4-2.49-2.1-4.51-2.1H90.29z"/>
	<path fill="#FFFFFF" stroke="#FFFFFF" stroke-width="0.3589" stroke-miterlimit="10" d="M116.09,10.14c0.84,0,1.56,0.13,2.16,0.38
		c0.6,0.25,1.1,0.6,1.48,1.05s0.67,0.96,0.86,1.54c0.19,0.58,0.28,1.21,0.28,1.87c0,0.58-0.08,1.15-0.25,1.71
		c-0.17,0.57-0.45,1.08-0.83,1.53s-0.88,0.82-1.48,1.1c-0.6,0.28-1.34,0.42-2.21,0.42h-4.9v6.82h-2.66V10.14H116.09z M111.19,16.86
		h5.29c0.5,0,0.91-0.19,1.24-0.56s0.49-0.83,0.49-1.37c0-0.5-0.17-0.95-0.51-1.33s-0.74-0.58-1.21-0.58h-5.31V16.86z"/>
	<path fill="#FFFFFF" stroke="#FFFFFF" stroke-width="0.3589" stroke-miterlimit="10" d="M135.84,13.01h-7.97
		c-0.47,0-0.87,0.19-1.21,0.58s-0.51,0.83-0.51,1.33c0,0.54,0.16,1,0.48,1.37s0.74,0.56,1.26,0.56h7.94v2.88h-7.97
		c-0.47,0-0.87,0.19-1.21,0.57c-0.34,0.38-0.51,0.83-0.51,1.33c0,0.61,0.16,1.1,0.48,1.48s0.74,0.56,1.26,0.56h7.94v2.88h-7.56
		c-0.88,0-1.63-0.14-2.23-0.42c-0.6-0.28-1.1-0.65-1.47-1.11c-0.38-0.46-0.65-0.98-0.82-1.55c-0.17-0.58-0.25-1.17-0.25-1.78
		c0-0.64,0.13-1.28,0.39-1.9c0.26-0.62,0.68-1.12,1.26-1.5c-0.6-0.38-1.02-0.89-1.27-1.52c-0.25-0.63-0.38-1.23-0.38-1.8
		c0-0.68,0.09-1.31,0.27-1.91c0.18-0.59,0.46-1.11,0.83-1.54c0.38-0.44,0.87-0.77,1.47-1.02c0.6-0.24,1.34-0.37,2.21-0.37h7.56
		V13.01z"/>
	<path fill="#FFFFFF" stroke="#FFFFFF" stroke-width="0.3589" stroke-miterlimit="10" d="M154.19,22.63c0,0.61-0.1,1.16-0.3,1.66
		s-0.48,0.92-0.83,1.27c-0.36,0.35-0.77,0.62-1.24,0.81s-0.99,0.29-1.53,0.29c-0.77,0-1.47-0.23-2.1-0.68
		c-0.63-0.45-1.06-1.08-1.3-1.88l-3.04-10.09c-0.1-0.33-0.21-0.58-0.35-0.76s-0.33-0.26-0.57-0.26c-0.76,0-1.13,0.48-1.13,1.44
		v12.13h-2.82V14.11c0-0.61,0.1-1.16,0.3-1.66s0.48-0.92,0.83-1.27c0.35-0.35,0.77-0.62,1.24-0.81c0.47-0.19,0.99-0.29,1.53-0.29
		c0.77,0,1.47,0.23,2.1,0.68c0.63,0.45,1.06,1.08,1.3,1.88l3.04,10.09c0.1,0.33,0.21,0.58,0.35,0.76s0.33,0.26,0.57,0.26
		c0.76,0,1.13-0.48,1.13-1.44V10.14h2.83V22.63z"/>
	<path fill="#FFFFFF" stroke="#FFFFFF" stroke-width="0.6797" stroke-miterlimit="10" d="M170.06,26.55h-4.34V4.83h-6.11V0.22h16.2
		v4.61h-5.75V26.55z"/>
	<path fill="#FFFFFF" stroke="#FFFFFF" stroke-width="0.3589" stroke-miterlimit="10" d="M189.15,13.01h-7.97
		c-0.47,0-0.87,0.19-1.21,0.58s-0.51,0.83-0.51,1.33c0,0.54,0.16,1,0.48,1.37s0.74,0.56,1.26,0.56h7.94v2.88h-7.97
		c-0.47,0-0.87,0.19-1.21,0.57c-0.34,0.38-0.51,0.83-0.51,1.33c0,0.61,0.16,1.1,0.48,1.48s0.74,0.56,1.26,0.56h7.94v2.88h-7.56
		c-0.88,0-1.63-0.14-2.23-0.42c-0.6-0.28-1.1-0.65-1.47-1.11c-0.38-0.46-0.65-0.98-0.82-1.55c-0.17-0.58-0.25-1.17-0.25-1.78
		c0-0.64,0.13-1.28,0.39-1.9c0.26-0.62,0.68-1.12,1.26-1.5c-0.6-0.38-1.02-0.89-1.27-1.52c-0.25-0.63-0.38-1.23-0.38-1.8
		c0-0.68,0.09-1.31,0.27-1.91c0.18-0.59,0.46-1.11,0.83-1.54c0.38-0.44,0.87-0.77,1.47-1.02c0.6-0.24,1.34-0.37,2.21-0.37h7.56
		V13.01z"/>
	<path fill="#FFFFFF" stroke="#FFFFFF" stroke-width="0.3589" stroke-miterlimit="10" d="M198.93,26.55c-4.59,0-6.88-2.73-6.88-8.18
		v-0.08c0.05-5.44,2.35-8.16,6.91-8.16h5.53v2.87h-6.2c-1.21,0-2.11,0.44-2.69,1.31c-0.59,0.87-0.88,2.23-0.88,4.08
		c0,3.52,1.18,5.28,3.55,5.28h6.21v2.88H198.93z"/>
	<path fill="#FFFFFF" stroke="#FFFFFF" stroke-width="0.3589" stroke-miterlimit="10" d="M217.16,19.73h-7.03v6.82h-2.65V10.14h2.65
		v6.72h7.03v-6.72h2.66v16.42h-2.66V19.73z"/>
</g>
</svg>
